<?xml version="1.0" encoding="UTF-8" standalone="no"?>
<!-- Created with Inkscape (http://www.inkscape.org/) -->

<svg
   width="800mm"
   height="800mm"
   viewBox="0 0 800 800"
   version="1.1"
   id="svg1"
   inkscape:version="1.4 (e7c3feb100, 2024-10-09)"
   sodipodi:docname="FuyukaLogo.svg"
   xmlns:inkscape="http://www.inkscape.org/namespaces/inkscape"
   xmlns:sodipodi="http://sodipodi.sourceforge.net/DTD/sodipodi-0.dtd"
   xmlns="http://www.w3.org/2000/svg"
   xmlns:svg="http://www.w3.org/2000/svg">
  <sodipodi:namedview
     id="namedview1"
     pagecolor="#505050"
     bordercolor="#ffffff"
     borderopacity="1"
     inkscape:showpageshadow="0"
     inkscape:pageopacity="0"
     inkscape:pagecheckerboard="1"
     inkscape:deskcolor="#505050"
     inkscape:document-units="mm"
     inkscape:zoom="0.12249228"
     inkscape:cx="2085.8457"
     inkscape:cy="1706.2299"
     inkscape:window-width="1290"
     inkscape:window-height="761"
     inkscape:window-x="0"
     inkscape:window-y="0"
     inkscape:window-maximized="1"
     inkscape:current-layer="svg1" />
  <defs
     id="defs1">
    <rect
       x="414.54941"
       y="522.78687"
       width="224.41229"
       height="104.26874"
       id="rect17" />
  </defs>
  <g
     id="g29"
     transform="matrix(9.8212597,0,0,9.610291,-736.82,-808.7366)">
    <path
       d="m 124.65797,109.38697 a 20.182499,19.6425 26.487588 0 0 -26.824233,8.57903 20.182499,19.6425 26.487588 0 0 9.302993,26.5822 20.182499,19.6425 26.487588 0 0 26.82492,-8.57927 20.182499,19.6425 26.487588 0 0 -9.30368,-26.58196 z"
       style="fill:#007df9;stroke:#ffffff;stroke-width:2;stroke-linecap:butt;stroke-linejoin:miter;stroke-dasharray:none;stroke-dashoffset:0.2;stroke-opacity:1"
       id="path6" />
    <text
       xml:space="preserve"
       transform="matrix(0.21290166,0,0,0.23441286,4.3253897,-3.0506893)"
       id="text17"
       style="font-style:normal;font-variant:normal;font-weight:normal;font-stretch:normal;font-size:66.6667px;font-family:'ComicShannsMono Nerd Font Propo';-inkscape-font-specification:'ComicShannsMono Nerd Font Propo, Normal';font-variant-ligatures:normal;font-variant-caps:normal;font-variant-numeric:normal;font-variant-east-asian:normal;text-align:start;writing-mode:lr-tb;direction:ltr;white-space:pre;shape-inside:url(#rect17);display:inline;fill:#31ecd7;fill-opacity:1;stroke:#192513;stroke-width:2.13543;stroke-linecap:butt;stroke-linejoin:miter;stroke-dasharray:none;stroke-dashoffset:0.755906;stroke-opacity:1"><tspan
         x="414.54883"
         y="578.34269"
         id="tspan1">FUYUKA</tspan></text>
    <g
       id="g17"
       transform="translate(-15.231156,11.106049)"
       style="stroke:#ffffff;stroke-opacity:1">
      <g
         id="g22"
         style="stroke:#ffffff;stroke-opacity:1">
        <path
           sodipodi:type="star"
           style="fill:#eca831;fill-opacity:1;stroke:#ffffff;stroke-width:0.564999;stroke-linecap:butt;stroke-linejoin:miter;stroke-dasharray:none;stroke-dashoffset:0.755906;stroke-opacity:1"
           id="path17"
           inkscape:flatsided="false"
           sodipodi:sides="4"
           sodipodi:cx="109.01465"
           sodipodi:cy="103.85984"
           sodipodi:r1="6.1094031"
           sodipodi:r2="1.8093653"
           sodipodi:arg1="-1.5707964"
           sodipodi:arg2="-0.78539815"
           inkscape:rounded="0"
           inkscape:randomized="0"
           d="m 109.01465,97.750437 1.27941,4.829993 4.82999,1.27941 -4.82999,1.27941 -1.27941,4.82999 -1.27942,-4.82999 -4.82998,-1.27941 4.82998,-1.27941 z"
           transform="matrix(0.73916358,0,0,0.84964901,27.55749,16.08793)" />
        <path
           sodipodi:type="star"
           style="fill:#eca831;fill-opacity:1;stroke:#ffffff;stroke-width:0.564999;stroke-linecap:butt;stroke-linejoin:miter;stroke-dasharray:none;stroke-dashoffset:0.755906;stroke-opacity:1"
           id="path17-5"
           inkscape:flatsided="false"
           sodipodi:sides="4"
           sodipodi:cx="109.01465"
           sodipodi:cy="103.85984"
           sodipodi:r1="6.1094031"
           sodipodi:r2="1.8093653"
           sodipodi:arg1="-1.5707964"
           sodipodi:arg2="-0.78539815"
           inkscape:rounded="0"
           inkscape:randomized="0"
           d="m 109.01465,97.750437 1.27941,4.829993 4.82999,1.27941 -4.82999,1.27941 -1.27941,4.82999 -1.27942,-4.82999 -4.82998,-1.27941 4.82998,-1.27941 z"
           transform="matrix(0.5235311,0,0,0.71103108,58.221723,33.647409)" />
        <path
           sodipodi:type="star"
           style="fill:#eca831;fill-opacity:1;stroke:#ffffff;stroke-width:0.564999;stroke-linecap:butt;stroke-linejoin:miter;stroke-dasharray:none;stroke-dashoffset:0.755906;stroke-opacity:1"
           id="path17-5-2"
           inkscape:flatsided="false"
           sodipodi:sides="4"
           sodipodi:cx="109.01465"
           sodipodi:cy="103.85984"
           sodipodi:r1="6.1094031"
           sodipodi:r2="1.8093653"
           sodipodi:arg1="-1.5707964"
           sodipodi:arg2="-0.78539815"
           inkscape:rounded="0"
           inkscape:randomized="0"
           d="m 109.01465,97.750437 1.27941,4.829993 4.82999,1.27941 -4.82999,1.27941 -1.27941,4.82999 -1.27942,-4.82999 -4.82998,-1.27941 4.82998,-1.27941 z"
           transform="matrix(0.42112935,0,0,0.43103848,68.473603,54.883969)" />
      </g>
      <ellipse
         style="fill:#000000;fill-opacity:0;stroke:#ffffff;stroke-width:0.165405;stroke-linecap:butt;stroke-linejoin:miter;stroke-dasharray:none;stroke-dashoffset:0.755906;stroke-opacity:1"
         id="path23"
         cx="131.11888"
         cy="116.14134"
         rx="34.54961"
         ry="7.916429" />
    </g>
    <g
       id="g18"
       transform="translate(4.1251071,0.15418835)"
       style="stroke:#ffffff;stroke-opacity:1">
      <path
         sodipodi:type="spiral"
         style="fill:none;fill-rule:evenodd;stroke:#ffffff;stroke-width:0.152;stroke-dasharray:none;stroke-opacity:1"
         id="path18"
         sodipodi:cx="121.99713"
         sodipodi:cy="138.60707"
         sodipodi:expansion="1"
         sodipodi:revolution="4.2033591"
         sodipodi:radius="3.9727635"
         sodipodi:argument="-25.795822"
         sodipodi:t0="0.032230817"
         d="m 122.12292,138.63102 c 0.11228,0.13958 -0.0627,0.30688 -0.19393,0.33395 -0.28207,0.0582 -0.50694,-0.20965 -0.52187,-0.47024 -0.0235,-0.41025 0.35843,-0.71379 0.74655,-0.70979 0.53693,0.006 0.92291,0.50781 0.89771,1.02286 -0.0325,0.66334 -0.65737,1.13307 -1.29918,1.08563 -0.7897,-0.0584 -1.34378,-0.80703 -1.27354,-1.57548 0.0837,-0.91606 0.95674,-1.55484 1.85179,-1.46147 1.04242,0.10874 1.76611,1.10649 1.64939,2.1281 -0.13354,1.1688 -1.25626,1.97754 -2.40442,1.83731 -1.29518,-0.15818 -2.18907,-1.40604 -2.02522,-2.68072 0.18272,-1.42158 1.55584,-2.40068 2.95703,-2.21315 1.54797,0.20718 2.61236,1.70566 2.40107,3.23334 -0.23158,1.67438 -1.85548,2.82408 -3.50966,2.58899 -1.80078,-0.25592 -3.03584,-2.0053 -2.7769,-3.78596 0.28023,-1.9272 2.15513,-3.24763 4.06227,-2.96483 2.05361,0.30452 3.45944,2.30497 3.15275,4.33859 -0.0837,0.55487 -0.28803,1.08966 -0.59401,1.55994"
         transform="rotate(-2.6501311,122.23524,138.3719)" />
      <path
         sodipodi:type="spiral"
         style="fill:none;fill-rule:evenodd;stroke:#ffffff;stroke-width:0.264583;stroke-opacity:1"
         id="path18-0"
         sodipodi:cx="121.99713"
         sodipodi:cy="138.60707"
         sodipodi:expansion="1"
         sodipodi:revolution="4.0463963"
         sodipodi:radius="3.8244097"
         sodipodi:argument="-25.795822"
         sodipodi:t0="0"
         d="m 121.99713,138.60707 c 0.11204,-0.0875 0.17324,0.10785 0.14545,0.18622 -0.0753,0.21236 -0.35927,0.21308 -0.51788,0.10467 -0.28372,-0.19391 -0.2692,-0.60511 -0.0639,-0.84954 0.30128,-0.3587 0.85446,-0.32745 1.1812,-0.0231 0.43549,0.40561 0.38663,1.10507 -0.0177,1.51286 -0.50873,0.51316 -1.35629,0.44631 -1.84451,-0.0584 -0.59131,-0.61128 -0.50627,-1.60786 0.0992,-2.17618 0.7135,-0.66975 1.85964,-0.5664 2.50784,0.13995 0.74837,0.81552 0.62665,2.11157 -0.18073,2.83951 -0.91739,0.82712 -2.36359,0.68699 -3.17116,-0.2215 -0.90597,-1.01919 -0.74739,-2.61569 0.26227,-3.50283 1.12092,-0.98488 2.86784,-0.80783 3.83448,0.30304 1.06386,1.2226 0.86832,3.12004 -0.34381,4.16615 -1.32423,1.14286 -3.37226,0.92882 -4.4978,-0.38458 -1.2219,-1.42584 -0.98935,-3.62453 0.42535,-4.82947 1.52743,-1.30095 3.8768,-1.04989 5.16113,0.46613 0.23908,0.28221 0.43625,0.5995 0.58397,0.93857"
         transform="matrix(0.61423923,0,0,0.58726805,41.5875,58.714798)" />
      <path
         sodipodi:type="spiral"
         style="fill:none;fill-rule:evenodd;stroke:#ffffff;stroke-width:0.264633;stroke-dasharray:none;stroke-opacity:1"
         id="path18-6"
         sodipodi:cx="121.99713"
         sodipodi:cy="138.60707"
         sodipodi:expansion="1"
         sodipodi:revolution="4.8497024"
         sodipodi:radius="4.5836496"
         sodipodi:argument="-25.795822"
         sodipodi:t0="0"
         d="m 121.99713,138.60707 c 0.11204,-0.0875 0.17324,0.10785 0.14545,0.18622 -0.0753,0.21236 -0.35927,0.21308 -0.51788,0.10467 -0.28372,-0.19391 -0.2692,-0.60511 -0.0639,-0.84954 0.30128,-0.3587 0.85446,-0.32745 1.1812,-0.0231 0.43549,0.40561 0.38663,1.10508 -0.0176,1.51286 -0.50874,0.51316 -1.3563,0.44631 -1.84453,-0.0584 -0.5913,-0.61128 -0.50626,-1.60786 0.0992,-2.17618 0.7135,-0.66975 1.85964,-0.5664 2.50784,0.13995 0.74837,0.81552 0.62666,2.11157 -0.18073,2.83951 -0.91739,0.82712 -2.36359,0.68699 -3.17116,-0.2215 -0.90597,-1.01919 -0.74739,-2.61569 0.26227,-3.50283 1.12091,-0.98488 2.86784,-0.80783 3.83449,0.30304 1.06385,1.2226 0.86831,3.12004 -0.34382,4.16615 -1.32423,1.14286 -3.37227,0.92882 -4.49781,-0.38458 -1.22189,-1.42584 -0.98935,-3.62453 0.42536,-4.82947 1.52743,-1.30096 3.8768,-1.0499 5.16113,0.46612 1.38004,1.629 1.11046,4.1291 -0.5069,5.4928 -1.73055,1.45913 -4.38141,1.17102 -5.82445,-0.54767 -1.53825,-1.83209 -1.23161,-4.63374 0.58844,-6.15612 0.72933,-0.61004 1.64746,-0.97652 2.59558,-1.04246"
         transform="matrix(0.58896174,0,0,0.56016129,47.783019,65.789036)" />
    </g>
    <path
       style="fill:#2f2986;fill-opacity:1;stroke:#ffffff;stroke-width:0.152;stroke-linecap:butt;stroke-linejoin:miter;stroke-dasharray:none;stroke-dashoffset:0.755906;stroke-opacity:1"
       id="path19"
       d="m 111.64272,119.40451 c 0.0574,-0.58348 0.52664,-1.00999 0.95076,-1.36295 0.67004,-0.42526 1.46243,-0.54774 2.24296,-0.54391 0.65287,0.0285 1.30386,0.0889 1.93789,0.25052 0.65599,0.13589 1.21071,0.51925 1.82122,0.76972 0.67139,0.27905 1.39681,0.35819 2.11566,0.40367 0.65101,-0.0395 1.32581,0.002 1.96634,-0.14779 0.13091,-0.0306 0.25553,-0.0837 0.38329,-0.12549 0.59929,-0.22396 1.13297,-0.54971 1.56045,-1.02596 0.0447,-0.0581 0.0894,-0.11627 0.13414,-0.17441 0,0 -3.30581,-1.95464 -3.30581,-1.95464 v 0 c -0.036,0.0532 -0.072,0.10639 -0.10805,0.15959 -0.33772,0.44398 -0.82356,0.70976 -1.34067,0.90258 -0.74295,0.18823 -1.51379,0.19402 -2.27651,0.15707 -0.71142,-0.0763 -1.41597,-0.2 -2.06392,-0.52085 -0.60215,-0.28965 -1.20105,-0.59122 -1.86702,-0.70686 -0.65258,-0.11352 -1.31659,-0.21298 -1.98041,-0.15932 -0.83084,0.0926 -1.66288,0.2701 -2.3581,0.76071 -0.48342,0.43048 -0.9631,0.87036 -1.28537,1.44011 z" />
    <path
       style="fill:#bb3232;fill-opacity:1;stroke:#ffffff;stroke-width:0.152;stroke-linecap:butt;stroke-linejoin:miter;stroke-dasharray:none;stroke-dashoffset:0.755906;stroke-opacity:1"
       id="path20"
       d="m 100.83729,140.6289 c 0.21907,-0.70193 0.54339,-1.07918 1.13442,-1.49426 0.54848,-0.35814 1.17752,-0.50447 1.81958,-0.57061 0.0777,0.005 0.15718,-0.002 0.23324,0.0143 0.0786,0.0174 0.14961,0.0596 0.2253,0.087 0.37889,0.13718 0.74562,0.27299 1.11167,0.44319 0.55703,0.24707 1.09385,0.5354 1.65352,0.77626 0.51119,0.20822 1.05896,0.25262 1.6042,0.28047 0.60972,9e-5 1.04892,-0.39037 1.44403,-0.80755 0.19841,-0.2304 0.38691,-0.46079 0.6387,-0.63333 0,0 -3.25529,-2.04184 -3.25529,-2.04184 v 0 c -0.23143,0.21316 -0.41932,0.46018 -0.62219,0.70026 -0.39444,0.40748 -0.68511,0.56776 -1.26842,0.52384 -0.51743,-0.047 -1.02648,-0.13562 -1.49765,-0.36781 -0.5466,-0.25898 -1.09188,-0.52106 -1.64553,-0.7647 -0.54381,-0.22455 -1.12726,-0.4948 -1.72707,-0.3932 -0.65931,0.13909 -1.281758,0.39482 -1.847146,0.76483 -0.271852,0.20243 -0.370187,0.25514 -0.598879,0.50645 -0.28928,0.3179 -0.479978,0.71561 -0.800182,1.00739 z" />
    <path
       style="fill:#39a539;fill-opacity:1;stroke:#ffffff;stroke-width:0.152;stroke-linecap:butt;stroke-linejoin:miter;stroke-dasharray:none;stroke-dashoffset:0.755906;stroke-opacity:1"
       id="path21"
       d="m 132.96767,137.48299 c 0.47631,-0.26475 0.97507,-0.49651 1.47595,-0.71197 0.50855,-0.12332 0.94279,0.12152 1.401,0.2977 0.36963,0.0989 0.68474,0.31706 1.02046,0.48799 0.17519,0.0892 0.35838,0.16193 0.53473,0.24881 0.24658,0.15073 0.52973,0.15997 0.80038,0.22807 0.068,0.0171 0.13366,0.0422 0.20049,0.0633 0.0725,0.0173 0.14489,0.0346 0.21734,0.0519 0.28038,0.0917 0.57149,0.20759 0.8724,0.18781 0.17911,-0.0118 0.35528,-0.0515 0.53325,-0.0748 0.29168,-0.0985 0.60246,-0.14123 0.88965,-0.25422 0.11175,-0.044 0.21624,-0.10457 0.32574,-0.15385 0.21361,-0.0961 0.43001,-0.18593 0.64384,-0.28154 0.31924,-0.12234 0.59572,-0.32478 0.88755,-0.49858 0,0 -3.15048,-2.03454 -3.15048,-2.03454 v 0 c -0.27488,0.17282 -0.5482,0.35053 -0.85355,0.46679 -0.57949,0.2705 -1.18223,0.49197 -1.82342,0.55583 -0.50573,0.0165 -0.88438,-0.0889 -1.36162,-0.23981 -0.39001,-0.11034 -0.78968,-0.19182 -1.15172,-0.38276 -0.5284,-0.24171 -1.03149,-0.53965 -1.58742,-0.71949 -0.54824,-0.19766 -0.98718,-0.26265 -1.55037,-0.0365 -0.51905,0.25575 -1.04204,0.49508 -1.59347,0.67479 z" />
  </g>
  <ellipse
     id="path22"
     style="fill:#050c0b;stroke:#ffffff;stroke-width:2.57048"
     cx="553.25159"
     cy="321.28958"
     rx="0.10145725"
     ry="0.099277861" />
</svg>
