<?xml version="1.0" encoding="UTF-8" standalone="no"?>
<!-- Created with Inkscape (http://www.inkscape.org/) -->

<svg
   width="800mm"
   height="800mm"
   viewBox="0 0 800 800"
   version="1.1"
   id="svg1"
   inkscape:version="1.4 (e7c3feb100, 2024-10-09)"
   sodipodi:docname="GameLogo.svg"
   xmlns:inkscape="http://www.inkscape.org/namespaces/inkscape"
   xmlns:sodipodi="http://sodipodi.sourceforge.net/DTD/sodipodi-0.dtd"
   xmlns="http://www.w3.org/2000/svg"
   xmlns:svg="http://www.w3.org/2000/svg">
  <sodipodi:namedview
     id="namedview1"
     pagecolor="#ffffff"
     bordercolor="#000000"
     borderopacity="0.19607843"
     inkscape:showpageshadow="2"
     inkscape:pageopacity="0.0"
     inkscape:pagecheckerboard="0"
     inkscape:deskcolor="#d1d1d1"
     inkscape:document-units="mm"
     inkscape:zoom="0.3464605"
     inkscape:cx="1635.107"
     inkscape:cy="1194.9414"
     inkscape:window-width="1280"
     inkscape:window-height="761"
     inkscape:window-x="0"
     inkscape:window-y="0"
     inkscape:window-maximized="1"
     inkscape:current-layer="g10" />
  <defs
     id="defs1">
    <rect
       x="690.22205"
       y="1223.1638"
       width="34.313386"
       height="19.261417"
       id="rect8" />
    <rect
       x="685.88504"
       y="1238.5984"
       width="15.689764"
       height="12.883465"
       id="rect3" />
    <rect
       x="688.8189"
       y="1206.1984"
       width="232.66772"
       height="205.11496"
       id="rect2" />
    <rect
       x="651.06142"
       y="1212.3213"
       width="305.12126"
       height="161.23465"
       id="rect1" />
  </defs>
  <g
     inkscape:label="Layer 1"
     inkscape:groupmode="layer"
     id="layer1">
    <text
       xml:space="preserve"
       transform="scale(0.26458333)"
       id="text8"
       style="fill:#000000;text-align:start;writing-mode:lr-tb;text-orientation:auto;direction:ltr;fill-opacity:1;-inkscape-font-specification:'IosevkaTermSlab Nerd Font Mono, Bold Italic';font-family:'IosevkaTermSlab Nerd Font Mono';font-weight:bold;font-style:italic;font-stretch:normal;font-variant:normal;font-size:4px;font-variant-ligatures:normal;font-variant-caps:normal;font-variant-numeric:normal;font-variant-east-asian:normal;stroke:#6b6b6b;stroke-opacity:1;stroke-width:0.377953;stroke-dasharray:none;white-space:pre;shape-inside:url(#rect8)" />
    <g
       id="g10"
       transform="matrix(30.663981,0,0,28.895405,-5335.3644,-8954.1219)">
      <text
         xml:space="preserve"
         transform="scale(0.26458333)"
         id="text2"
         style="text-align:start;writing-mode:lr-tb;direction:ltr;white-space:pre;shape-inside:url(#rect2);fill:#000000;fill-opacity:1;stroke:#08fbf9;stroke-width:0.377953;stroke-dasharray:none;stroke-opacity:1"><tspan
           x="688.81836"
           y="1216.9632"
           id="tspan3"><tspan
             style="font-style:italic;font-weight:bold;font-size:12px;font-family:'IosevkaTermSlab Nerd Font Mono';-inkscape-font-specification:'IosevkaTermSlab Nerd Font Mono, Bold Italic';fill:#1ea5c8"
             id="tspan1">Mayofu</tspan></tspan></text>
      <path
         style="fill:#000000;fill-opacity:1;stroke:#6b6b6b;stroke-width:0.1;stroke-dasharray:none;stroke-opacity:1"
         id="path7"
         d="m 184.48814,318.02536 c 1.12546,0.6581 2.24159,1.33244 3.37638,1.97434 0.017,0.01 0.0245,-0.0323 0.0421,-0.0407 0.0317,-0.0151 0.0667,-0.0238 0.10161,-0.0278 0.0542,-0.006 0.10903,-0.003 0.16353,-0.003 0.40828,-0.009 0.16953,-0.019 0.68342,0.0521 0.17846,0.0481 0.35692,0.0961 0.53539,0.14419 0,0 -1.78404,-1.37448 -1.78404,-1.37448 v 0 c -0.19403,-0.0596 -0.38806,-0.1192 -0.58209,-0.17881 -0.22038,-0.083 -0.44309,-0.16004 -0.66114,-0.249 -0.2085,-0.085 -0.41206,-0.18168 -0.61801,-0.27273 -0.14256,-0.063 -0.28587,-0.12438 -0.42749,-0.18949 -0.096,-0.0441 -0.19257,-0.0874 -0.28525,-0.13819 -0.0637,-0.0349 -0.24561,-0.15479 -0.18294,-0.11814 1.0971,0.64151 2.19094,1.28855 3.28642,1.93283 z" />
      <g
         id="g9"
         transform="translate(1.8614586,-0.69208076)">
        <path
           sodipodi:type="spiral"
           style="fill:none;fill-rule:evenodd;stroke:#000000;stroke-width:0.264583"
           id="path8"
           sodipodi:cx="190.08"
           sodipodi:cy="323.39249"
           sodipodi:expansion="1"
           sodipodi:revolution="2.2251322"
           sodipodi:radius="0.89734554"
           sodipodi:argument="-18.448328"
           sodipodi:t0="0"
           d="m 190.08,323.39249 c 0.0558,0.0237 -0.004,0.087 -0.0394,0.0928 -0.0948,0.0159 -0.15387,-0.0899 -0.14625,-0.17156 0.0136,-0.146 0.17005,-0.2257 0.30375,-0.19969 0.1962,0.0382 0.29904,0.25103 0.25312,0.43594 -0.0612,0.24644 -0.33229,0.37299 -0.56812,0.30656 -0.29677,-0.0836 -0.44726,-0.41368 -0.36,-0.70031 0.10568,-0.34716 0.49513,-0.52171 0.8325,-0.41344 0.39758,0.12759 0.59625,0.57662 0.46687,0.96469 -0.13219,0.39647 -0.55375,0.6268 -0.96014,0.55555"
           transform="matrix(0.3795065,0,0,0.34181648,117.84104,213.5677)" />
        <text
           xml:space="preserve"
           style="font-style:italic;font-variant:normal;font-weight:bold;font-stretch:normal;font-size:1.05833px;font-family:'IosevkaTermSlab Nerd Font Mono';-inkscape-font-specification:'IosevkaTermSlab Nerd Font Mono, Bold Italic';font-variant-ligatures:normal;font-variant-caps:normal;font-variant-numeric:normal;font-variant-east-asian:normal;text-align:start;writing-mode:lr-tb;direction:ltr;text-anchor:start;fill:#000000;fill-opacity:1;stroke:#6b6b6b;stroke-width:0.1;stroke-dasharray:none;stroke-opacity:1"
           x="184.45218"
           y="324.4303"
           id="text9"><tspan
             sodipodi:role="line"
             id="tspan8"
             style="stroke-width:0.1"
             x="184.45218"
             y="324.4303">color in v id</tspan></text>
      </g>
      <path
         style="fill:#000000;fill-opacity:1;stroke:#6b6b6b;stroke-width:0.107779;stroke-dasharray:none;stroke-opacity:1"
         id="path9"
         d="m 194.32714,323.97127 c -0.0733,-0.006 -0.094,-0.004 -0.13327,-0.0188 -0.0122,-0.004 -0.0274,-0.009 -0.0243,-0.0134 0.002,-0.006 0.0243,-0.009 0.0359,-0.0139 0,0 -8.19799,-0.0152 -8.19799,-0.0152 v 0 c -0.0344,0.005 -0.0648,0.0101 -0.0992,0.0145 -0.13844,0.015 -0.29576,0.0247 -0.45715,0.031 z" />
    </g>
  </g>
</svg>
