<?xml version="1.0" encoding="UTF-8" standalone="no"?>
<!-- Created with Inkscape (http://www.inkscape.org/) -->

<svg
   width="500"
   height="500"
   viewBox="0 0 132.29167 132.29167"
   version="1.1"
   id="svg1"
   inkscape:version="1.4 (e7c3feb100, 2024-10-09)"
   sodipodi:docname="GameLogo.svg"
   xmlns:inkscape="http://www.inkscape.org/namespaces/inkscape"
   xmlns:sodipodi="http://sodipodi.sourceforge.net/DTD/sodipodi-0.dtd"
   xmlns:xlink="http://www.w3.org/1999/xlink"
   xmlns="http://www.w3.org/2000/svg"
   xmlns:svg="http://www.w3.org/2000/svg">
  <sodipodi:namedview
     id="namedview1"
     pagecolor="#ffffff"
     bordercolor="#000000"
     borderopacity="0.25"
     inkscape:showpageshadow="2"
     inkscape:pageopacity="0.0"
     inkscape:pagecheckerboard="0"
     inkscape:deskcolor="#d1d1d1"
     inkscape:document-units="mm"
     inkscape:zoom="0.97993828"
     inkscape:cx="206.64567"
     inkscape:cy="288.7937"
     inkscape:window-width="1290"
     inkscape:window-height="761"
     inkscape:window-x="0"
     inkscape:window-y="0"
     inkscape:window-maximized="1"
     inkscape:current-layer="g1" />
  <defs
     id="defs1">
    <linearGradient
       id="linearGradient300"
       inkscape:collect="always">
      <stop
         style="stop-color:#00e4ff;stop-opacity:1;"
         offset="0"
         id="stop300" />
      <stop
         style="stop-color:#630000;stop-opacity:1;"
         offset="1"
         id="stop301" />
    </linearGradient>
    <linearGradient
       id="linearGradient266"
       inkscape:collect="always">
      <stop
         style="stop-color:#ffd700;stop-opacity:1;"
         offset="0"
         id="stop266" />
      <stop
         style="stop-color:#ffd700;stop-opacity:0;"
         offset="1"
         id="stop267" />
    </linearGradient>
    <rect
       x="496.4491"
       y="764.87793"
       width="461.81311"
       height="225.1339"
       id="rect22" />
    <linearGradient
       id="linearGradient20"
       inkscape:collect="always">
      <stop
         style="stop-color:#07f6ff;stop-opacity:1;"
         offset="0.10044976"
         id="stop21" />
      <stop
         style="stop-color:#ed0000;stop-opacity:1;"
         offset="0.86002213"
         id="stop22" />
    </linearGradient>
    <rect
       x="305.95117"
       y="629.22034"
       width="1714.4812"
       height="1518.2106"
       id="rect12" />
    <rect
       x="167.40726"
       y="583.03906"
       width="1304.6219"
       height="756.21899"
       id="rect11" />
    <rect
       x="294.40585"
       y="698.49231"
       width="1206.4867"
       height="854.35425"
       id="rect10" />
    <rect
       x="363.67783"
       y="617.67505"
       width="958.26221"
       height="721.58301"
       id="rect9" />
    <linearGradient
       id="linearGradient7"
       inkscape:collect="always">
      <stop
         style="stop-color:#fae6e6;stop-opacity:0.08755733;"
         offset="0"
         id="stop7" />
      <stop
         style="stop-color:#fae6e6;stop-opacity:0;"
         offset="1"
         id="stop8" />
    </linearGradient>
    <linearGradient
       inkscape:collect="always"
       xlink:href="#linearGradient7"
       id="linearGradient8"
       x1="19.743576"
       y1="130.96198"
       x2="106.0382"
       y2="130.96198"
       gradientUnits="userSpaceOnUse"
       gradientTransform="matrix(0.53501225,0,0,0.57976512,98.381687,67.411439)" />
    <linearGradient
       inkscape:collect="always"
       xlink:href="#linearGradient20"
       id="linearGradient23"
       x1="143.99426"
       y1="53.37038"
       x2="185.2404"
       y2="232.02702"
       gradientUnits="userSpaceOnUse" />
    <linearGradient
       inkscape:collect="always"
       xlink:href="#linearGradient266"
       id="linearGradient271"
       x1="45.588398"
       y1="92.404716"
       x2="61.326145"
       y2="92.404716"
       gradientUnits="userSpaceOnUse" />
    <linearGradient
       inkscape:collect="always"
       xlink:href="#linearGradient266"
       id="linearGradient272"
       x1="30.313503"
       y1="92.786545"
       x2="45.672188"
       y2="92.786545"
       gradientUnits="userSpaceOnUse" />
    <linearGradient
       inkscape:collect="always"
       xlink:href="#linearGradient266"
       id="linearGradient273"
       x1="45.570526"
       y1="93.359306"
       x2="46.452347"
       y2="93.359306"
       gradientUnits="userSpaceOnUse" />
    <linearGradient
       inkscape:collect="always"
       xlink:href="#linearGradient300"
       id="linearGradient301"
       x1="48.010265"
       y1="166.0374"
       x2="138.31122"
       y2="69.201485"
       gradientUnits="userSpaceOnUse" />
  </defs>
  <g
     inkscape:label="Layer 1"
     inkscape:groupmode="layer"
     id="layer1">
    <g
       id="g301"
       transform="translate(-102.20933,-51.113427)">
      <g
         id="g302"
         transform="matrix(0.5,0,0,0.5,97.541898,57.865955)">
        <g
           id="g1">
          <path
             id="rect28"
             style="opacity:0.923345;fill:url(#linearGradient301);fill-opacity:1;stroke:#000000;stroke-width:0;stroke-dasharray:none;stroke-opacity:1"
             d="m 92.595382,56.893685 a 3.24562,3.4365389 0 0 0 -3.24528,3.436483 3.24562,3.4365389 0 0 0 0.226342,1.238167 L 67.457898,76.464583 50.177816,66.204744 26.957528,78.084639 49.234204,72.904077 34.897611,110.4036 l -0.667142,-5.2e-4 c 0.15138,6.65096 7.438648,12.00862 16.411918,12.00857 8.97326,5e-5 16.260538,-5.35761 16.411918,-12.00857 h -1.605587 l 0.197404,-0.0791 -14.92622,-37.314006 15.657959,9.394258 23.75979,-16.17679 v 95.622588 c 0.323832,-0.0129 0.648207,-0.0218 0.97255,-0.0196 0.407844,0.003 0.815228,0.0202 1.221114,0.0579 0.09115,0.008 0.1819,0.0207 0.272852,0.031 0.172345,-0.0182 0.346888,-0.0108 0.519865,-0.008 0.342091,0.01 0.683719,-0.0172 1.025777,-0.0171 0.02773,-0.001 0.05564,-0.001 0.0832,-0.001 0.146967,0.002 0.290637,0.0313 0.434599,0.0589 0.06048,-0.0471 0.12475,-0.0919 0.185001,-0.13694 0.208001,-0.15101 0.426358,-0.30425 0.68523,-0.34934 V 66.848116 l 24.406261,16.616557 14.65854,-8.794812 -13.27103,34.713129 -0.66714,-5.2e-4 c 0.15138,6.65096 7.43865,12.00862 16.41192,12.00857 8.97326,5e-5 16.26054,-5.3576 16.41192,-12.00857 h -1.60559 l 0.1974,-0.0791 L 138.03188,74.184102 159.36392,79.14504 136.14414,67.265145 118.86406,77.524984 95.537838,61.815348 v -0.03721 a 3.24562,3.4365389 0 0 0 0.30334,-1.447973 3.24562,3.4365389 0 0 0 -3.245796,-3.436483 z m -42.696619,15.85588 0.35295,37.654035 H 35.432463 L 49.821248,72.767135 Z m 0.507463,0.822172 14.732434,36.831343 H 50.751424 Z m 85.737914,0.173116 0.20826,0.04858 0.33331,35.589557 h -14.81925 l 13.43071,-35.130154 z m 0.70901,0.164848 0.58497,0.135909 14.13454,35.33686 h -14.38724 z m -15.78457,36.161619 0.23254,0.0889 0.2341,0.0889 v 5.2e-4 l -0.2341,-0.0894 -0.23254,-0.0884 z m -86.434002,1.02061 0.232544,0.0889 0.234095,0.0889 v 5.2e-4 l -0.234095,-0.0894 -0.232544,-0.0884 z m 102.572552,0.59221 v 5.2e-4 l -0.25063,0.002 -0.24908,0.002 v -5.2e-4 z m -86.434002,1.02061 v 5.2e-4 l -0.25063,0.002 -0.249081,0.002 v -5.2e-4 z m 44.46447,49.6657 c -6.91e-4,5.1e-4 -0.0014,0.001 -0.0021,0.002 1.3e-4,3.7e-4 3.97e-4,7e-4 5.16e-4,0.001 5.17e-4,-8.6e-4 9.51e-4,-0.002 0.0016,-0.003 z m -0.641305,14.02447 c 0.04861,0.077 0.07621,0.11517 0.128674,0.19947 -0.0111,-0.0653 -0.06115,-0.13211 -0.128674,-0.19947 z" />
          <path
             d=""
             style="fill:url(#linearGradient273)"
             id="path290" />
          <path
             d=""
             style="fill:url(#linearGradient272)"
             id="path288" />
          <path
             d=""
             style="fill:url(#linearGradient271)"
             id="path286" />
          <path
             style="opacity:0.923345;fill:#351e0f;fill-opacity:1;stroke:#6b6b6b;stroke-width:0.0556939"
             id="path2"
             sodipodi:type="arc"
             sodipodi:cx="133.11063"
             sodipodi:cy="142.45796"
             sodipodi:rx="3.2686052"
             sodipodi:ry="3.3206422"
             sodipodi:start="0.017453293"
             sodipodi:end="6.2831853"
             sodipodi:open="true"
             sodipodi:arc-type="arc"
             d="m 136.37873,142.51592 a 3.2686052,3.3206422 0 0 1 -3.31089,3.2624 3.2686052,3.3206422 0 0 1 -3.22569,-3.34934 3.2686052,3.3206422 0 0 1 3.28274,-3.29163 3.2686052,3.3206422 0 0 1 3.25434,3.32061" />
          <path
             style="opacity:0.923345;fill:#160d07;fill-opacity:0.517762;stroke:#000000;stroke-width:0.334164;stroke-dasharray:none;stroke-opacity:1"
             id="path3"
             sodipodi:type="arc"
             sodipodi:cx="133.21277"
             sodipodi:cy="142.56865"
             sodipodi:rx="10.724855"
             sodipodi:ry="12.065001"
             sodipodi:start="0.017453293"
             sodipodi:end="6.2831853"
             sodipodi:open="true"
             sodipodi:arc-type="arc"
             d="m 143.93599,142.77921 a 10.724855,12.065001 0 0 1 -10.86361,11.85341 10.724855,12.065001 0 0 1 -10.58406,-12.16926 10.724855,12.065001 0 0 1 10.77124,-11.9596 10.724855,12.065001 0 0 1 10.67806,12.06489" />
          <path
             id="path4"
             style="opacity:0.923345;fill:url(#linearGradient8);fill-opacity:0.0875573;stroke:#000000;stroke-width:0.429601;stroke-dasharray:none;stroke-opacity:1"
             d="m 132.11803,130.09565 a 22.981415,13.243148 0 0 0 -14.89428,3.14432 23.088251,17.518259 0 0 0 -8.06976,11.17246 22.981415,13.243148 0 0 0 22.56287,12.16833 22.981415,13.243148 0 0 0 23.1877,-12.37865 23.088251,17.518259 0 0 0 -7.84388,-10.87166 22.981415,13.243148 0 0 0 -14.94265,-3.2348 z" />
          <path
             sodipodi:type="spiral"
             style="opacity:0.923345;fill:none;fill-rule:evenodd;stroke:#000000;stroke-width:0.1;stroke-dasharray:none"
             id="path6"
             sodipodi:cx="65.055588"
             sodipodi:cy="129.3475"
             sodipodi:expansion="1"
             sodipodi:revolution="28.197317"
             sodipodi:radius="8.1361322"
             sodipodi:argument="-248.42378"
             sodipodi:t0="0.012899002"
             d="m 65.103729,129.25425 c 0.08458,0.005 0.126075,0.10006 0.109213,0.17448 -0.02699,0.11912 -0.161512,0.17362 -0.271674,0.14023 -0.153657,-0.0466 -0.221816,-0.22337 -0.171232,-0.36887 0.06547,-0.18831 0.285382,-0.27032 0.46605,-0.20224 0.22304,0.084 0.318988,0.34748 0.233251,0.56324 -0.102449,0.25782 -0.409616,0.36776 -0.660427,0.26426 -0.292627,-0.12075 -0.416583,-0.47178 -0.295269,-0.75761 0.138985,-0.32746 0.533978,-0.46546 0.854803,-0.32628 0.362309,0.15717 0.514361,0.59618 0.357288,0.95199 -0.175334,0.39717 -0.658402,0.56329 -1.049179,0.3883 -0.432041,-0.19347 -0.612232,-0.72063 -0.419307,-1.14637 0.211586,-0.46692 0.782861,-0.66119 1.243556,-0.45032 0.5018,0.22969 0.710158,0.8451 0.481325,1.34075 -0.247782,0.53668 -0.907341,0.75913 -1.437932,0.51233 -0.571578,-0.26586 -0.808119,-0.96958 -0.543344,-1.53512 0.283942,-0.60647 1.031835,-0.85711 1.632308,-0.57435 0.641369,0.30201 0.906103,1.09408 0.605363,1.72949 -0.320078,0.67627 -1.156339,0.95511 -1.826685,0.63638 -0.711167,-0.33814 -1.004103,-1.2186 -0.667381,-1.92388 0.356198,-0.74606 1.28085,-1.05311 2.021061,-0.69839 0.780972,0.37426 1.102117,1.34311 0.7294,2.11825 -0.392304,0.81588 -1.405366,1.15113 -2.215437,0.76041 -0.850782,-0.41035 -1.200139,-1.46762 -0.791419,-2.31262 0.428402,-0.88569 1.529887,-1.24916 2.409814,-0.82243 0.920595,0.44645 1.298167,1.59215 0.853437,2.507 -0.464492,0.9555 -1.654411,1.34718 -2.60419,0.88445 -0.990411,-0.48254 -1.396202,-1.71668 -0.915455,-2.70138 0.500575,-1.02532 1.778936,-1.44522 2.798565,-0.94647 1.06023,0.51862 1.494242,1.8412 0.977474,2.89576 -0.536655,1.09514 -1.903465,1.54326 -2.992942,1.00848 -1.130049,-0.55469 -1.592284,-1.96573 -1.039492,-3.09013 0.572731,-1.16496 2.027995,-1.64131 3.187318,-1.0705 1.199872,0.59077 1.69033,2.09026 1.101511,3.28451 -0.608804,1.23478 -2.152526,1.73935 -3.381694,1.13252 -1.269695,-0.62684 -1.788378,-2.2148 -1.16353,-3.47889 0.644875,-1.3046 2.277059,-1.8374 3.576071,-1.19454 1.339519,0.66291 1.886428,2.33933 1.225548,3.67326 -0.680943,1.37443 -2.401593,1.93546 -3.770447,1.25656 -1.409344,-0.69898 -1.98448,-2.46386 -1.287567,-3.86763 0.71701,-1.44426 2.526128,-2.03351 3.964824,-1.31858 1.479169,0.73504 2.082533,2.58839 1.349585,4.06201 -0.753075,1.51408 -2.650663,2.13156 -4.1592,1.3806 -1.548996,-0.77111 -2.180588,-2.71294 -1.411604,-4.25639 0.789138,-1.58391 2.775199,-2.22962 4.353576,-1.44262 1.618824,0.80717 2.278645,2.83747 1.473623,4.45077 -0.825201,1.65374 -2.899736,2.32767 -4.547953,1.50463 -1.688651,-0.84323 -2.376701,-2.962 -1.535641,-4.64514 0.861262,-1.72357 3.024273,-2.42573 4.742329,-1.56665 1.758479,0.87929 2.47476,3.08654 1.59766,4.83952 -0.897323,1.79339 -3.148811,2.52379 -4.936705,1.62867 -1.828308,-0.91536 -2.572819,-3.21108 -1.659679,-5.0339 0.933382,-1.86322 3.273349,-2.62185 5.131082,-1.69069 1.898136,0.95142 2.670878,3.33562 1.721697,5.22827 -0.969441,1.93305 -3.397888,2.71991 -5.325458,1.75271 -1.967966,-0.98747 -2.768938,-3.46016 -1.783716,-5.42265 1.005499,-2.00288 3.522426,-2.81796 5.519834,-1.81472 2.037795,1.02353 2.866999,3.58469 1.845735,5.61702 -1.041557,2.07271 -3.646965,2.91603 -5.714211,1.87675 -2.107624,-1.05959 -2.96506,-3.70924 -1.907753,-5.8114 1.077614,-2.14254 3.771505,-3.01409 5.908587,-1.93877 2.177455,1.09565 3.063122,3.83378 1.969772,6.00578 -1.113671,2.21237 -3.896044,3.11215 -6.102963,2.00078 -2.247285,-1.1317 -3.161184,-3.95831 -2.031791,-6.20015 1.149727,-2.2822 4.020584,-3.21022 6.29734,-2.0628 2.317115,1.16775 3.259246,4.08285 2.093809,6.39453 -1.185783,2.35203 -4.145124,3.30828 -6.491716,2.12482 -2.386946,-1.20382 -3.357309,-4.2074 -2.155828,-6.58891 1.221838,-2.42186 4.269664,-3.40634 6.686092,-2.18684 2.456777,1.23987 3.455373,4.33194 2.217847,6.78328 -1.257894,2.4917 -4.394204,3.50441 -6.880469,2.24886 -2.526607,-1.27592 -3.553436,-4.45647 -2.279865,-6.97766 1.293949,-2.56152 4.518745,-3.60246 7.074845,-2.31087 2.596439,1.31198 3.6515,4.58101 2.341884,7.17203 -1.330003,2.63136 -4.643285,3.70053 -7.269221,2.3729 -2.66627,-1.34803 -3.749564,-4.70556 -2.403903,-7.36641 1.366057,-2.70119 4.767826,-3.7986 7.463598,-2.43492 2.736101,1.38409 3.847628,4.8301 2.465921,7.56079 -1.402112,2.77102 -4.892367,3.89666 -7.657974,2.49693 -2.805932,-1.42014 -3.945692,-4.95464 -2.52794,-7.75516 1.438166,-2.84085 5.016907,-3.99473 7.852351,-2.55895 2.875763,1.45619 4.043756,5.07918 2.589958,7.94954 -1.474219,2.91068 -5.141448,4.09279 -8.046727,2.62097 -2.945595,-1.49225 -4.141821,-5.20372 -2.651977,-8.14392 1.510273,-2.98051 5.26599,-4.19085 8.241103,-2.68299 3.015427,1.5283 4.239887,5.32826 2.713996,8.3383 -1.546326,3.05034 -5.390531,4.28891 -8.43548,2.745 -3.085258,-1.56435 -4.337951,-5.4528 -2.776014,-8.53267 1.582379,-3.12017 5.515072,-4.38698 8.629856,-2.80702 3.15509,1.6004 4.436017,5.57734 2.838033,8.72704 -1.618432,3.19001 -5.639613,4.48505 -8.824232,2.86905 -3.224922,-1.63646 -4.534082,-5.70189 -2.900052,-8.92142 1.654485,-3.25984 5.764155,-4.58312 9.018609,-2.93107 3.294753,1.67252 4.632147,5.82643 2.96207,9.1158 -1.690538,3.32967 -5.888696,4.68118 -9.212985,2.99308 -3.364586,-1.70856 -4.730213,-5.95097 -3.024089,-9.31017 1.726591,-3.3995 6.013238,-4.77925 9.407361,-3.0551 3.434418,1.74462 4.828279,6.07551 3.086108,9.50455 -1.762643,3.46933 -6.137779,4.87731 -9.601738,3.11712 -3.504249,-1.78067 -4.926345,-6.20005 -3.148126,-9.69893 1.798696,-3.53917 6.262321,-4.97538 9.796114,-3.17914 3.574082,1.81673 5.024411,6.3246 3.210145,9.89331 -1.834748,3.60899 -6.386863,5.07344 -9.99049,3.24115 -3.643914,-1.85277 -5.122477,-6.44913 -3.272164,-10.08768 1.8708,-3.67883 6.511405,-5.17151 10.184867,-3.30317 3.713746,1.88883 5.220543,6.57367 3.334182,10.28205 -1.906852,3.74867 -6.635946,5.26958 -10.379243,3.3652 -3.783578,-1.92488 -5.318609,-6.69822 -3.396201,-10.47644 1.942904,-3.81849 6.760488,-5.36764 10.573619,-3.42721 3.853411,1.96093 5.416676,6.82276 3.45822,10.67081 -1.978956,3.88833 -6.88503,5.46571 -10.767996,3.48923 -3.923243,-1.99698 -5.514742,-6.9473 -3.520238,-10.86518 0.646413,-1.26978 1.628739,-2.35884 2.824694,-3.13323"
             transform="matrix(0.53501225,0,0,0.57976512,98.381687,67.411439)" />
          <ellipse
             style="opacity:0.923345;fill:#1a1a1a;fill-opacity:1;stroke:#000000;stroke-width:0.0556939;stroke-dasharray:none;stroke-opacity:1"
             id="path7"
             cx="133.22203"
             cy="142.41203"
             rx="0.6050989"
             ry="0.66528052" />
          <text
             xml:space="preserve"
             transform="scale(0.26458333)"
             id="text11"
             style="font-style:normal;font-variant:normal;font-weight:normal;font-stretch:normal;font-size:26.6667px;font-family:'CaskaydiaCove Nerd Font Propo';-inkscape-font-specification:'CaskaydiaCove Nerd Font Propo, Normal';font-variant-ligatures:normal;font-variant-caps:normal;font-variant-numeric:normal;font-variant-east-asian:normal;text-align:start;letter-spacing:0px;writing-mode:lr-tb;direction:ltr;white-space:pre;shape-inside:url(#rect12);display:inline;opacity:0.873624;fill:#0f0804;fill-opacity:0.436914;stroke:#000000;stroke-width:0;stroke-dasharray:none;stroke-opacity:1" />
          <path
             id="text13"
             style="font-style:normal;font-variant:normal;font-weight:bold;font-stretch:normal;font-size:7.05556px;font-family:'CaskaydiaCove Nerd Font Propo';-inkscape-font-specification:'CaskaydiaCove Nerd Font Propo, Bold';font-variant-ligatures:normal;font-variant-caps:normal;font-variant-numeric:normal;font-variant-east-asian:normal;text-align:start;letter-spacing:0px;writing-mode:lr-tb;direction:ltr;text-anchor:start;opacity:1;fill:url(#linearGradient23);fill-opacity:1;stroke:#000000;stroke-width:2;stroke-dasharray:none;stroke-opacity:1"
             d="m 132.7149,123.29325 c -5.1816,0 -9.4486,1.72684 -12.5982,5.13044 -3.302,3.556 -5.1816,8.73789 -5.1816,14.27509 0,5.5372 1.8796,10.76938 5.1816,14.27458 3.2004,3.4544 7.36564,5.13096 12.64884,5.13096 5.2832,0 9.44896,-1.67656 12.64936,-5.13096 3.2004,-3.4036 5.18159,-8.78845 5.18159,-14.02085 0,-5.7912 -1.87959,-11.02362 -5.18159,-14.52882 -3.2512,-3.5052 -7.3152,-5.13044 -12.7,-5.13044 z m -58.775744,0.60926 v 37.0334 h 7.620207 v -28.85457 l 6.654891,28.85457 h 7.61969 l 6.553606,-28.85457 v 28.85457 h 7.61969 v -37.0334 H 98.526286 l -6.502446,29.46436 -6.705534,-29.46436 z m 82.550004,0 v 37.0334 h 7.6202 v -14.68127 h 8.73745 c 3.302,0 4.72426,1.32072 4.72426,4.36872 v 1.52394 c -0.0508,0.9652 -0.0506,1.87981 -0.0506,2.43861 0,3.5052 0.20336,4.572 1.11776,6.35 h 8.17883 v -1.37149 c -1.1684,-0.6604 -1.62574,-1.42228 -1.62574,-3.04788 -0.2032,-10.922 -0.40655,-11.43022 -5.13095,-13.46222 4.1656,-1.6256 6.24871,-4.62295 6.24871,-9.14415 0,-2.9464 -1.01614,-5.63844 -2.79414,-7.46724 -1.6764,-1.7272 -4.01327,-2.54042 -7.16287,-2.54042 z m 47.1935,0 -13.15734,37.0334 h 7.77265 l 2.48874,-7.46776 h 13.8684 l 2.43862,7.46776 h 7.82329 l -12.8018,-37.0334 z m 26.26351,0 v 37.0334 h 25.34936 v -6.35 h -17.72915 v -30.6834 z m -97.18063,5.89318 c 6.2484,0 10.21075,5.07978 10.21075,13.10618 0,7.62 -4.11475,12.7 -10.21075,12.7 -6.1976,0 -10.21075,-5.07989 -10.21075,-12.90309 0,-7.8232 4.01315,-12.90309 10.21075,-12.90309 z m 31.34382,0.45682 h 9.19479 c 2.1844,0 3.04799,0.20332 4.01319,0.96532 0.9144,0.762 1.37149,2.03226 1.37149,3.75946 0,1.778 -0.45709,3.20003 -1.37149,3.96203 -0.8636,0.7112 -1.82879,0.96532 -4.01319,0.96532 h -9.19479 z m 43.63713,2.38797 4.82606,14.47767 h -9.65212 z" />
          <text
             xml:space="preserve"
             transform="scale(0.26458333)"
             id="text22"
             style="font-style:normal;font-variant:normal;font-weight:normal;font-stretch:normal;font-size:48px;font-family:'0xProto Nerd Font';-inkscape-font-specification:'0xProto Nerd Font, Normal';font-variant-ligatures:normal;font-variant-caps:normal;font-variant-numeric:normal;font-variant-east-asian:normal;text-align:start;letter-spacing:0px;writing-mode:lr-tb;direction:ltr;white-space:pre;shape-inside:url(#rect22);display:inline;opacity:0.923345;fill:#000000;fill-opacity:1;stroke:#000000;stroke-width:0;stroke-dasharray:none;stroke-opacity:1" />
          <text
             xml:space="preserve"
             style="font-style:italic;font-variant:normal;font-weight:normal;font-stretch:normal;font-size:12.7px;font-family:'0xProto Nerd Font';-inkscape-font-specification:'0xProto Nerd Font, Italic';font-variant-ligatures:normal;font-variant-caps:normal;font-variant-numeric:normal;font-variant-east-asian:normal;text-align:start;letter-spacing:0px;writing-mode:lr-tb;direction:ltr;text-anchor:start;opacity:0.923345;fill:#000000;fill-opacity:1;stroke:#000000;stroke-width:0.4;stroke-dasharray:none;stroke-opacity:1"
             x="145.86198"
             y="177.93634"
             id="text23"><tspan
               sodipodi:role="line"
               id="tspan22"
               style="font-style:italic;font-variant:normal;font-weight:normal;font-stretch:normal;font-size:12.7px;font-family:'0xProto Nerd Font';-inkscape-font-specification:'0xProto Nerd Font, Italic';font-variant-ligatures:normal;font-variant-caps:normal;font-variant-numeric:normal;font-variant-east-asian:normal;stroke-width:0.4;stroke-dasharray:none"
               x="145.86198"
               y="177.93634">Abyss lullaby</tspan></text>
        </g>
      </g>
    </g>
  </g>
</svg>
