<?xml version="1.0" encoding="UTF-8" standalone="no"?>
<!-- Created with Inkscape (http://www.inkscape.org/) -->

<svg
   width="210mm"
   height="297mm"
   viewBox="0 0 210 297"
   version="1.1"
   id="svg1"
   inkscape:version="1.4 (e7c3feb100, 2024-10-09)"
   sodipodi:docname="VnGameLogo.svg"
   xmlns:inkscape="http://www.inkscape.org/namespaces/inkscape"
   xmlns:sodipodi="http://sodipodi.sourceforge.net/DTD/sodipodi-0.dtd"
   xmlns:xlink="http://www.w3.org/1999/xlink"
   xmlns="http://www.w3.org/2000/svg"
   xmlns:svg="http://www.w3.org/2000/svg">
  <sodipodi:namedview
     id="namedview1"
     pagecolor="#ffffff"
     bordercolor="#000000"
     borderopacity="0.25"
     inkscape:showpageshadow="2"
     inkscape:pageopacity="0.0"
     inkscape:pagecheckerboard="0"
     inkscape:deskcolor="#d1d1d1"
     inkscape:document-units="mm"
     showguides="true"
     inkscape:zoom="0.48996914"
     inkscape:cx="395.94331"
     inkscape:cy="649.02047"
     inkscape:window-width="1292"
     inkscape:window-height="761"
     inkscape:window-x="0"
     inkscape:window-y="0"
     inkscape:window-maximized="1"
     inkscape:current-layer="svg1" />
  <defs
     id="defs1">
    <rect
       x="477.5811"
       y="634.73386"
       width="275.52756"
       height="232.66772"
       id="rect24" />
    <linearGradient
       id="linearGradient24"
       inkscape:collect="always">
      <stop
         style="stop-color:#00ccd7;stop-opacity:1;"
         offset="0.4189747"
         id="stop23" />
      <stop
         style="stop-color:#dd0028;stop-opacity:0.92088544;"
         offset="0.57442778"
         id="stop24" />
    </linearGradient>
    <linearGradient
       id="linearGradient15"
       inkscape:collect="always">
      <stop
         style="stop-color:#00ccd7;stop-opacity:1;"
         offset="0"
         id="stop15" />
      <stop
         style="stop-color:#dd0028;stop-opacity:0.92088544;"
         offset="1"
         id="stop16" />
    </linearGradient>
    <rect
       x="200.0126"
       y="230.62677"
       width="469.41732"
       height="371.45197"
       id="rect15" />
    <rect
       x="183.68504"
       y="277.5685"
       width="495.94961"
       height="306.14173"
       id="rect14" />
    <linearGradient
       inkscape:collect="always"
       xlink:href="#linearGradient15"
       id="linearGradient16" />
    <linearGradient
       inkscape:collect="always"
       xlink:href="#linearGradient24"
       id="linearGradient23"
       x1="195.7628"
       y1="368.92374"
       x2="497.65189"
       y2="368.92374"
       gradientUnits="userSpaceOnUse" />
  </defs>
  <g
     inkscape:label="Layer 1"
     inkscape:groupmode="layer"
     id="layer1">
    <text
       xml:space="preserve"
       transform="scale(0.26458333)"
       id="text14"
       style="font-style:italic;font-size:48px;font-family:'0xProto Nerd Font';-inkscape-font-specification:'0xProto Nerd Font, Italic';text-align:start;letter-spacing:0px;writing-mode:lr-tb;direction:ltr;white-space:pre;shape-inside:url(#rect14);fill:url(#linearGradient16);stroke:#000000;stroke-width:0.755906" />
    <path
       sodipodi:type="spiral"
       style="fill:none;fill-rule:evenodd;stroke:#000000;stroke-width:0.264583"
       id="path14"
       sodipodi:cx="78.300003"
       sodipodi:cy="58.32"
       sodipodi:expansion="1"
       sodipodi:revolution="28.197317"
       sodipodi:radius="14.669724"
       sodipodi:argument="-177.0583"
       sodipodi:t0="0.012899002"
       d="m 78.376229,58.493192 c -0.103464,0.112471 -0.283197,0.06341 -0.368462,-0.04457 -0.13646,-0.172829 -0.06045,-0.423251 0.111223,-0.539899 0.239449,-0.162704 0.56462,-0.05795 0.711336,0.177873 0.189892,0.305216 0.05569,0.706554 -0.244523,0.882773 -0.370621,0.217546 -0.848785,0.05358 -1.054209,-0.311173 -0.245464,-0.43584 -0.05155,-0.991194 0.377822,-1.225646 0.500954,-0.273542 1.133718,-0.04957 1.397083,0.444472 0.301726,0.566001 0.04763,1.27632 -0.511122,1.56852 -0.631003,0.329985 -1.418977,0.04572 -1.739957,-0.577772 -0.358295,-0.695974 -0.04383,-1.561676 0.644422,-1.911394 0.760923,-0.386645 1.704407,-0.04195 2.082831,0.711072 0.415026,0.825854 0.04008,1.847162 -0.777721,2.254268 -0.890773,0.44343 -1.989938,0.03823 -2.425706,-0.844371 -0.471852,-0.955681 -0.03637,-2.132728 0.911021,-2.597142 1.020581,-0.50029 2.275531,-0.03453 2.76858,0.977671 0.528739,1.085474 0.03269,2.418344 -1.044321,2.940016 -1.150362,0.557199 -2.561167,0.03086 -3.111453,-1.110971 -0.585669,-1.215245 -0.02902,-2.703997 1.17762,-3.28289 1.280125,-0.614145 2.846834,-0.0272 3.454327,1.24427 0.642627,1.345001 0.02537,2.989677 -1.31092,3.625764 -1.409874,0.671115 -3.132523,0.02354 -3.797201,-1.37757 -0.699607,-1.474744 -0.02172,-3.275374 1.44422,-3.968638 1.539613,-0.728103 3.41823,-0.0199 4.140075,1.51087 0.756603,1.60448 0.01808,3.561088 -1.57752,4.311512 -1.669345,0.785107 -3.703949,0.01626 -4.482948,-1.64417 -0.813613,-1.734209 -0.01445,-3.846812 1.710819,-4.654385 1.799072,-0.842121 3.989678,-0.01263 4.825822,1.777469 0.870632,1.863933 0.01082,4.132546 -1.844119,4.997259 -1.928794,0.899145 -4.275416,0.009 -5.168696,-1.910768 -0.927659,-1.993654 -0.0072,-4.418288 1.977418,-5.340134 2.058513,-0.956175 4.561162,-0.0054 5.511571,2.044069 0.984693,2.12337 0.0036,4.704035 -2.110718,5.683007 -2.188228,1.013212 -4.846912,0.0017 -5.854445,-2.177368 -1.041732,-2.253085 6.2e-5,-4.989788 2.244018,-6.025881 2.317941,-1.070254 5.132666,0.0019 6.197319,2.310667 1.098776,2.382797 -0.0037,5.275546 -2.377318,6.368756 -2.447651,1.127299 -5.418425,-0.0055 -6.540192,-2.443968 -1.155824,-2.512506 0.0073,-5.561306 2.510617,-6.711629 2.57736,-1.184349 5.704187,0.0091 6.883066,2.577267 1.212875,2.642214 -0.01092,5.84707 -2.643917,7.054503 -2.707068,1.241402 -5.989952,-0.01273 -7.22594,-2.710567 -1.269929,-2.771921 0.01454,-6.132836 2.777217,-7.397377 2.836774,-1.298456 6.27572,0.01635 7.568814,2.843867 1.326985,2.901627 -0.01815,6.418605 -2.910517,7.740251 -2.966479,1.355514 -6.561489,-0.01996 -7.911687,-2.977166 -1.384044,-3.031332 0.02177,-6.704376 3.043816,-8.083125 3.096183,-1.412573 6.847261,0.02358 8.254561,3.110466 1.441104,3.161035 -0.02538,6.990148 -3.177115,8.425998 -3.225887,1.469635 -7.133035,-0.02719 -8.597436,-3.243765 -1.498165,-3.290738 0.029,-7.275922 3.310415,-8.768873 3.355589,-1.526697 7.41881,0.03081 8.94031,3.377065 1.555229,3.42044 -0.03261,7.561698 -3.443715,9.111747 -3.485291,1.583761 -7.704586,-0.03442 -9.283184,-3.510365 -1.612293,-3.550141 0.03623,-7.847475 3.577015,-9.45462 3.614992,-1.640826 7.990364,0.03803 9.626058,3.643664 1.669359,3.679842 -0.03984,8.133253 -3.710315,9.797495 -3.744692,1.697892 -8.276142,-0.04164 -9.968931,-3.776965 -1.726426,-3.809542 0.04345,-8.419031 3.843614,-10.140368 3.874393,-1.75496 8.561921,0.04526 10.311805,3.910264 1.783494,3.939243 -0.04706,8.704811 -3.976914,10.483242 -4.004092,1.812028 -8.847701,-0.04887 -10.654679,-4.043563 -1.840562,-4.068943 0.05067,-8.990593 4.110214,-10.826117 4.133792,-1.869096 9.133482,0.05248 10.997553,4.176864 1.897631,4.198641 -0.05428,9.276373 -4.243513,11.16899 -4.263491,1.926166 -9.419265,-0.05609 -11.340427,-4.310163 -1.954702,-4.32834 0.05789,-9.562156 4.376812,-11.511864 4.39319,-1.983237 9.705047,0.0597 11.683301,4.443462 2.011772,4.458039 -0.0615,9.847939 -4.510112,11.854738 -4.522888,2.040308 -9.99083,-0.06331 -12.026175,-4.576762 -2.068843,-4.587737 0.06511,-10.133722 4.643412,-12.197612 4.652586,-2.097379 10.276614,0.06692 12.369049,4.710062 2.125915,4.717435 -0.06873,10.419506 -4.776712,12.540486 -4.782284,2.154451 -10.562398,-0.07053 -12.711923,-4.843362 -2.182987,-4.847133 0.07233,-10.70529 4.910012,-12.883359 4.911982,-2.211524 10.848182,0.07414 13.054797,4.976661 2.24006,4.97683 -0.07594,10.991075 -5.043312,13.226234 -5.041679,2.268596 -11.133967,-0.07775 -13.39767,-5.109961 -2.297134,-5.106528 0.07955,-11.27686 5.176611,-13.569108 5.171376,-2.32567 11.419752,0.08136 13.740544,5.243261 2.354207,5.236225 -0.08316,11.562645 -5.30991,13.911981 -5.301074,2.382744 -11.705539,-0.08497 -14.083419,-5.37656 -2.411281,-5.365922 0.08677,-11.848432 5.44321,-14.254856 5.430771,-2.439817 11.991325,0.08858 14.426293,5.50986 2.468355,5.495619 -0.09038,12.134218 -5.57651,14.59773 -5.560467,2.496892 -12.277111,-0.09219 -14.769166,-5.64316 -2.52543,-5.625315 0.09399,-12.420004 5.709809,-14.940603 5.690164,-2.553967 12.562898,0.09579 15.11204,5.776459 2.582505,5.755012 -0.0976,12.705791 -5.843109,15.283477 -5.81986,2.611042 -12.848685,-0.0994 -15.454914,-5.909759 -2.639579,-5.884708 0.101206,-12.991578 5.976409,-15.626351 5.949556,-2.668117 13.134472,0.10301 15.797788,6.043059 2.696655,6.014405 -0.104814,13.277366 -6.109709,15.969225 -6.079252,2.725193 -13.420259,-0.106618 -16.140662,-6.176358 -2.75373,-6.144101 0.108423,-13.563154 6.243009,-16.312099 6.208949,-2.782269 13.706047,0.110226 16.483535,6.309658 2.810807,6.273797 -0.11203,13.848941 -6.376307,16.654973 -6.338645,2.839344 -13.991835,-0.113835 -16.82641,-6.442958 -2.867882,-6.403493 0.115639,-14.134729 6.509607,-16.997847 6.468341,-2.89642 14.277624,0.117443 17.169284,6.576258 2.924959,6.533188 -0.119247,14.420517 -6.642907,17.34072 -6.598037,2.953497 -14.563412,-0.121051 -17.512158,-6.709557 -2.982035,-6.662885 0.122855,-14.706306 6.776207,-17.683595 6.727733,-3.010573 14.8492,0.124659 17.855032,6.842857 3.039111,6.79258 -0.126463,14.992094 -6.909507,18.026469 -6.857428,3.067649 -15.134989,-0.128267 -18.197905,-6.976157 -3.096188,-6.922276 0.13007,-15.277883 7.042806,-18.369342 6.987124,-3.124727 15.420777,0.131874 18.540779,7.109456 3.153265,7.051971 -0.133678,15.563672 -7.176106,18.712216 -7.116819,3.181804 -15.706566,-0.135482 -18.883653,-7.242756 -3.210342,-7.181666 0.137286,-15.84946 7.309406,-19.05509 7.246514,-3.23888 15.992355,0.13909 19.226527,7.376056 1.048185,2.345478 1.462272,4.957251 1.192978,7.512022"
       transform="matrix(3.1061321,0,0,0.10065614,-139.0241,146.293)" />
    <text
       xml:space="preserve"
       transform="matrix(0.26458333,0,0,0.26458333,12.42,29.7)"
       id="text15"
       style="font-style:italic;font-size:192px;font-family:'0xProto Nerd Font';-inkscape-font-specification:'0xProto Nerd Font, Italic';text-align:start;letter-spacing:0px;writing-mode:lr-tb;direction:ltr;white-space:pre;shape-inside:url(#rect15);fill:url(#linearGradient23);stroke:#000000;stroke-width:0.755906;fill-opacity:1"
       inkscape:label="text15"><tspan
         x="200.01172"
         y="406.62695"
         id="tspan2"><tspan
           style="font-family:Playfair;-inkscape-font-specification:'Playfair Italic'"
           id="tspan1">Đạo </tspan></tspan></text>
  </g>
  <text
     xml:space="preserve"
     transform="scale(0.26458333)"
     id="text24"
     style="text-orientation:auto;-inkscape-font-specification:totono;font-family:totono;font-size:26.66666701px;stroke:#000000;stroke-width:0.75590551;fill:#424242;letter-spacing:0px;font-style:normal;text-align:start;writing-mode:lr-tb;direction:ltr;font-weight:normal;font-stretch:normal;font-variant:normal;fill-opacity:1;white-space:pre;shape-inside:url(#rect24)" />
  <text
     xml:space="preserve"
     style="font-style:normal;font-variant:normal;font-weight:normal;font-stretch:normal;font-size:7.05556px;font-family:totono;-inkscape-font-specification:totono;text-align:start;letter-spacing:0px;writing-mode:lr-tb;direction:ltr;text-anchor:start;fill:#424242;fill-opacity:1;stroke:#000000;stroke-width:0.2"
     x="70.739998"
     y="162.53999"
     id="text25"><tspan
       sodipodi:role="line"
       style="stroke-width:0.2"
       x="70.739998"
       y="162.53999"
       id="tspan26">Tiếng ru của vực thẳm </tspan></text>
</svg>
